<mxfile host="app.diagrams.net" agent="Mozilla/5.0 (Windows NT 10.0; Win64; x64; rv:135.0) Gecko/20100101 Firefox/135.0" version="26.0.11">
  <diagram name="Halaman-1" id="6O-18y5EeGYBOs01HTLQ">
    <mxGraphModel dx="6694" dy="5471" grid="1" gridSize="10" guides="1" tooltips="1" connect="1" arrows="1" fold="1" page="1" pageScale="1" pageWidth="827" pageHeight="1169" math="0" shadow="0">
      <root>
        <mxCell id="0" />
        <mxCell id="1" parent="0" />
        <mxCell id="pBDjScLnr90J527SwH1G-29" value="" style="rounded=0;whiteSpace=wrap;html=1;" vertex="1" parent="1">
          <mxGeometry x="-230" y="500" width="3760" height="1320" as="geometry" />
        </mxCell>
        <mxCell id="pBDjScLnr90J527SwH1G-30" value="" style="whiteSpace=wrap;html=1;aspect=fixed;" vertex="1" parent="1">
          <mxGeometry x="-163" y="1185" width="210" height="210" as="geometry" />
        </mxCell>
        <mxCell id="pBDjScLnr90J527SwH1G-31" value="" style="shape=partialRectangle;whiteSpace=wrap;html=1;right=0;top=0;bottom=0;fillColor=none;routingCenterX=-0.5;rotation=-90;" vertex="1" parent="1">
          <mxGeometry x="1665" y="-830" width="250" height="3320" as="geometry" />
        </mxCell>
        <mxCell id="pBDjScLnr90J527SwH1G-32" value="" style="shape=partialRectangle;whiteSpace=wrap;html=1;right=0;top=0;bottom=0;fillColor=none;routingCenterX=-0.5;rotation=-90;" vertex="1" parent="1">
          <mxGeometry x="1672.19" y="-494.67999999999995" width="250" height="3329.37" as="geometry" />
        </mxCell>
        <mxCell id="pBDjScLnr90J527SwH1G-33" value="Activity" style="text;html=1;align=center;verticalAlign=middle;whiteSpace=wrap;rounded=0;fontSize=25;" vertex="1" parent="1">
          <mxGeometry x="180" y="1100" width="60" height="30" as="geometry" />
        </mxCell>
        <mxCell id="pBDjScLnr90J527SwH1G-34" value="" style="shape=partialRectangle;whiteSpace=wrap;html=1;right=0;top=0;bottom=0;fillColor=none;routingCenterX=-0.5;rotation=-90;" vertex="1" parent="1">
          <mxGeometry x="1670" y="-135" width="250" height="3330" as="geometry" />
        </mxCell>
        <mxCell id="pBDjScLnr90J527SwH1G-35" value="Hasil Activity" style="text;html=1;align=center;verticalAlign=middle;whiteSpace=wrap;rounded=0;fontSize=25;" vertex="1" parent="1">
          <mxGeometry x="180" y="1450" width="60" height="30" as="geometry" />
        </mxCell>
        <mxCell id="pBDjScLnr90J527SwH1G-36" value="Halaman beranda" style="whiteSpace=wrap;html=1;aspect=fixed;fontSize=30;" vertex="1" parent="1">
          <mxGeometry x="340" y="985" width="260" height="260" as="geometry" />
        </mxCell>
        <mxCell id="pBDjScLnr90J527SwH1G-37" value="1. Profile" style="whiteSpace=wrap;html=1;aspect=fixed;fontSize=30;" vertex="1" parent="1">
          <mxGeometry x="764" y="985" width="260" height="260" as="geometry" />
        </mxCell>
        <mxCell id="pBDjScLnr90J527SwH1G-38" value="2. Visi dan Misi" style="whiteSpace=wrap;html=1;aspect=fixed;fontSize=30;" vertex="1" parent="1">
          <mxGeometry x="1180" y="985" width="260" height="260" as="geometry" />
        </mxCell>
        <mxCell id="pBDjScLnr90J527SwH1G-39" value="3. Foto Guru" style="whiteSpace=wrap;html=1;aspect=fixed;fontSize=30;" vertex="1" parent="1">
          <mxGeometry x="1560" y="985" width="260" height="260" as="geometry" />
        </mxCell>
        <mxCell id="pBDjScLnr90J527SwH1G-40" value="4. PPDB" style="whiteSpace=wrap;html=1;aspect=fixed;fontSize=30;" vertex="1" parent="1">
          <mxGeometry x="1970" y="985" width="260" height="260" as="geometry" />
        </mxCell>
        <mxCell id="pBDjScLnr90J527SwH1G-41" value="5. Prestasi" style="whiteSpace=wrap;html=1;aspect=fixed;fontSize=30;" vertex="1" parent="1">
          <mxGeometry x="2320" y="985" width="260" height="260" as="geometry" />
        </mxCell>
        <mxCell id="pBDjScLnr90J527SwH1G-42" value="Melihat isi halaman berupa informasi" style="whiteSpace=wrap;html=1;aspect=fixed;fontSize=30;" vertex="1" parent="1">
          <mxGeometry x="330" y="1335" width="260" height="260" as="geometry" />
        </mxCell>
        <mxCell id="pBDjScLnr90J527SwH1G-43" value="&lt;div&gt;Melihat biodata tentang sekolah &lt;br&gt;&lt;/div&gt;&lt;div&gt;terkait berdirinya dan struktur&lt;/div&gt;" style="whiteSpace=wrap;html=1;aspect=fixed;fontSize=30;" vertex="1" parent="1">
          <mxGeometry x="760" y="1335" width="260" height="260" as="geometry" />
        </mxCell>
        <mxCell id="pBDjScLnr90J527SwH1G-44" value="melihat visi dan misi sekolah tersebut" style="whiteSpace=wrap;html=1;aspect=fixed;fontSize=30;" vertex="1" parent="1">
          <mxGeometry x="1180" y="1335" width="260" height="260" as="geometry" />
        </mxCell>
        <mxCell id="pBDjScLnr90J527SwH1G-45" value="&amp;nbsp;melihat Foto seluruh guru pengejar di sekolah" style="whiteSpace=wrap;html=1;aspect=fixed;fontSize=30;" vertex="1" parent="1">
          <mxGeometry x="1560" y="1335" width="260" height="260" as="geometry" />
        </mxCell>
        <mxCell id="pBDjScLnr90J527SwH1G-46" value="&lt;span style=&quot;font-size: 30px;&quot;&gt;melihat informasi PPDB yang akan dibuka di setiap tahunnya&lt;/span&gt;" style="whiteSpace=wrap;html=1;aspect=fixed;" vertex="1" parent="1">
          <mxGeometry x="1970" y="1335" width="260" height="260" as="geometry" />
        </mxCell>
        <mxCell id="pBDjScLnr90J527SwH1G-47" value="melihat informasi prestasi sekolah disetiap mendapatkan juara" style="whiteSpace=wrap;html=1;aspect=fixed;fontSize=30;" vertex="1" parent="1">
          <mxGeometry x="2320" y="1335" width="260" height="260" as="geometry" />
        </mxCell>
        <mxCell id="pBDjScLnr90J527SwH1G-48" value="" style="endArrow=none;html=1;rounded=0;exitX=0;exitY=0;exitDx=0;exitDy=0;" edge="1" parent="1" source="pBDjScLnr90J527SwH1G-34">
          <mxGeometry width="50" height="50" relative="1" as="geometry">
            <mxPoint x="130" y="1615" as="sourcePoint" />
            <mxPoint x="130.79999999999995" y="954.7200000000003" as="targetPoint" />
          </mxGeometry>
        </mxCell>
        <mxCell id="pBDjScLnr90J527SwH1G-49" value="" style="endArrow=none;html=1;rounded=0;exitX=0;exitY=0;exitDx=0;exitDy=0;" edge="1" parent="1">
          <mxGeometry width="50" height="50" relative="1" as="geometry">
            <mxPoint x="2650" y="1655.2799999999997" as="sourcePoint" />
            <mxPoint x="2650.8" y="955" as="targetPoint" />
          </mxGeometry>
        </mxCell>
        <mxCell id="pBDjScLnr90J527SwH1G-50" value="" style="endArrow=none;html=1;rounded=0;exitX=0;exitY=0;exitDx=0;exitDy=0;" edge="1" parent="1">
          <mxGeometry width="50" height="50" relative="1" as="geometry">
            <mxPoint x="290" y="1655.2799999999997" as="sourcePoint" />
            <mxPoint x="290.79999999999995" y="955" as="targetPoint" />
          </mxGeometry>
        </mxCell>
        <mxCell id="pBDjScLnr90J527SwH1G-51" value="" style="endArrow=none;html=1;rounded=0;exitX=0;exitY=0;exitDx=0;exitDy=0;" edge="1" parent="1">
          <mxGeometry width="50" height="50" relative="1" as="geometry">
            <mxPoint x="680" y="1655.2799999999997" as="sourcePoint" />
            <mxPoint x="680.8" y="955" as="targetPoint" />
          </mxGeometry>
        </mxCell>
        <mxCell id="pBDjScLnr90J527SwH1G-52" value="" style="endArrow=none;html=1;rounded=0;exitX=0;exitY=0;exitDx=0;exitDy=0;" edge="1" parent="1">
          <mxGeometry width="50" height="50" relative="1" as="geometry">
            <mxPoint x="1090" y="1655.2799999999997" as="sourcePoint" />
            <mxPoint x="1090.8" y="955" as="targetPoint" />
          </mxGeometry>
        </mxCell>
        <mxCell id="pBDjScLnr90J527SwH1G-53" value="" style="endArrow=none;html=1;rounded=0;exitX=0;exitY=0;exitDx=0;exitDy=0;" edge="1" parent="1">
          <mxGeometry width="50" height="50" relative="1" as="geometry">
            <mxPoint x="1500" y="1655.2799999999997" as="sourcePoint" />
            <mxPoint x="1500.8" y="955" as="targetPoint" />
          </mxGeometry>
        </mxCell>
        <mxCell id="pBDjScLnr90J527SwH1G-54" value="" style="endArrow=none;html=1;rounded=0;exitX=0;exitY=0;exitDx=0;exitDy=0;" edge="1" parent="1">
          <mxGeometry width="50" height="50" relative="1" as="geometry">
            <mxPoint x="1890" y="1655.2799999999997" as="sourcePoint" />
            <mxPoint x="1890.8000000000002" y="955" as="targetPoint" />
          </mxGeometry>
        </mxCell>
        <mxCell id="pBDjScLnr90J527SwH1G-55" value="" style="endArrow=none;html=1;rounded=0;exitX=0;exitY=0;exitDx=0;exitDy=0;" edge="1" parent="1">
          <mxGeometry width="50" height="50" relative="1" as="geometry">
            <mxPoint x="2280" y="1655.2799999999997" as="sourcePoint" />
            <mxPoint x="2280.8" y="955" as="targetPoint" />
          </mxGeometry>
        </mxCell>
        <mxCell id="pBDjScLnr90J527SwH1G-56" value="User" style="text;strokeColor=none;fillColor=none;html=1;fontSize=40;fontStyle=1;verticalAlign=middle;align=center;" vertex="1" parent="1">
          <mxGeometry x="-108" y="1270" width="100" height="40" as="geometry" />
        </mxCell>
        <mxCell id="pBDjScLnr90J527SwH1G-57" value="6. Prasana" style="whiteSpace=wrap;html=1;aspect=fixed;fontSize=30;" vertex="1" parent="1">
          <mxGeometry x="2720" y="985" width="260" height="260" as="geometry" />
        </mxCell>
        <mxCell id="pBDjScLnr90J527SwH1G-58" value="7. Ekstrakulikuler" style="whiteSpace=wrap;html=1;aspect=fixed;fontSize=30;" vertex="1" parent="1">
          <mxGeometry x="3100" y="985" width="260" height="260" as="geometry" />
        </mxCell>
        <mxCell id="pBDjScLnr90J527SwH1G-59" value="" style="endArrow=none;html=1;rounded=0;exitX=-0.002;exitY=0.877;exitDx=0;exitDy=0;entryX=-0.004;entryY=0.88;entryDx=0;entryDy=0;entryPerimeter=0;exitPerimeter=0;" edge="1" parent="1" source="pBDjScLnr90J527SwH1G-34" target="pBDjScLnr90J527SwH1G-31">
          <mxGeometry width="50" height="50" relative="1" as="geometry">
            <mxPoint x="3050" y="1650.2799999999997" as="sourcePoint" />
            <mxPoint x="3050" y="960" as="targetPoint" />
          </mxGeometry>
        </mxCell>
        <mxCell id="pBDjScLnr90J527SwH1G-60" value="" style="endArrow=none;html=1;rounded=0;exitX=-0.002;exitY=0.877;exitDx=0;exitDy=0;entryX=-0.004;entryY=0.88;entryDx=0;entryDy=0;entryPerimeter=0;exitPerimeter=0;" edge="1" parent="1">
          <mxGeometry width="50" height="50" relative="1" as="geometry">
            <mxPoint x="3450" y="1650" as="sourcePoint" />
            <mxPoint x="3452" y="950" as="targetPoint" />
          </mxGeometry>
        </mxCell>
        <mxCell id="pBDjScLnr90J527SwH1G-61" value="melihat prasarana&lt;div&gt;yang ada di sekolah&amp;nbsp;&lt;/div&gt;" style="whiteSpace=wrap;html=1;aspect=fixed;fontSize=30;" vertex="1" parent="1">
          <mxGeometry x="2720" y="1335" width="260" height="260" as="geometry" />
        </mxCell>
        <mxCell id="pBDjScLnr90J527SwH1G-62" value="melihat dan memilih estrakulikuler yang tersedia di sekolah" style="whiteSpace=wrap;html=1;aspect=fixed;fontSize=30;" vertex="1" parent="1">
          <mxGeometry x="3100" y="1335" width="260" height="260" as="geometry" />
        </mxCell>
        <mxCell id="pBDjScLnr90J527SwH1G-63" value="&lt;font&gt;Actor&lt;/font&gt;" style="shape=umlActor;verticalLabelPosition=bottom;verticalAlign=top;html=1;outlineConnect=0;fontSize=40;" vertex="1" parent="1">
          <mxGeometry x="-96" y="910" width="80" height="180" as="geometry" />
        </mxCell>
        <mxCell id="pBDjScLnr90J527SwH1G-64" value="" style="rounded=0;whiteSpace=wrap;html=1;movable=1;resizable=1;rotatable=1;deletable=1;editable=1;locked=0;connectable=1;" vertex="1" parent="1">
          <mxGeometry x="100" y="-1405" width="3060" height="1700" as="geometry" />
        </mxCell>
        <mxCell id="pBDjScLnr90J527SwH1G-65" value="" style="whiteSpace=wrap;html=1;aspect=fixed;" vertex="1" parent="1">
          <mxGeometry x="223" y="-800" width="210" height="210" as="geometry" />
        </mxCell>
        <mxCell id="pBDjScLnr90J527SwH1G-66" value="" style="shape=partialRectangle;whiteSpace=wrap;html=1;right=0;top=0;bottom=0;fillColor=none;routingCenterX=-0.5;rotation=-90;movable=1;resizable=1;rotatable=1;deletable=1;editable=1;locked=0;connectable=1;" vertex="1" parent="1">
          <mxGeometry x="1466" y="-2230" width="250" height="2150" as="geometry" />
        </mxCell>
        <mxCell id="pBDjScLnr90J527SwH1G-67" value="" style="shape=partialRectangle;whiteSpace=wrap;html=1;right=0;top=0;bottom=0;fillColor=none;routingCenterX=-0.5;rotation=-90;movable=1;resizable=1;rotatable=1;deletable=1;editable=1;locked=0;connectable=1;" vertex="1" parent="1">
          <mxGeometry x="1465.85" y="-1887.34" width="250" height="2144.68" as="geometry" />
        </mxCell>
        <mxCell id="pBDjScLnr90J527SwH1G-68" value="Activity" style="text;html=1;align=center;verticalAlign=middle;whiteSpace=wrap;rounded=0;fontSize=25;" vertex="1" parent="1">
          <mxGeometry x="566" y="-880" width="60" height="30" as="geometry" />
        </mxCell>
        <mxCell id="pBDjScLnr90J527SwH1G-69" value="Hasil Activity" style="text;html=1;align=center;verticalAlign=middle;whiteSpace=wrap;rounded=0;fontSize=25;" vertex="1" parent="1">
          <mxGeometry x="566" y="-540" width="60" height="30" as="geometry" />
        </mxCell>
        <mxCell id="pBDjScLnr90J527SwH1G-70" value="&lt;font style=&quot;font-size: 30px;&quot;&gt;Login ke halaman admin&lt;/font&gt;" style="whiteSpace=wrap;html=1;aspect=fixed;" vertex="1" parent="1">
          <mxGeometry x="930" y="-435" width="260" height="260" as="geometry" />
        </mxCell>
        <mxCell id="pBDjScLnr90J527SwH1G-71" value="&lt;div&gt;&lt;font style=&quot;font-size: 30px;&quot;&gt;Halaman Dashboard&lt;/font&gt;&lt;/div&gt;" style="whiteSpace=wrap;html=1;aspect=fixed;" vertex="1" parent="1">
          <mxGeometry x="726" y="-650" width="260" height="260" as="geometry" />
        </mxCell>
        <mxCell id="pBDjScLnr90J527SwH1G-72" value="&lt;font style=&quot;font-size: 30px;&quot;&gt;1. Profile Sekolah&lt;/font&gt;" style="whiteSpace=wrap;html=1;aspect=fixed;" vertex="1" parent="1">
          <mxGeometry x="1126" y="-995" width="260" height="260" as="geometry" />
        </mxCell>
        <mxCell id="pBDjScLnr90J527SwH1G-73" value="&lt;font style=&quot;font-size: 30px;&quot;&gt;2. PPDB&lt;/font&gt;" style="whiteSpace=wrap;html=1;aspect=fixed;" vertex="1" parent="1">
          <mxGeometry x="1526" y="-1000" width="260" height="260" as="geometry" />
        </mxCell>
        <mxCell id="pBDjScLnr90J527SwH1G-74" value="&lt;font style=&quot;font-size: 30px;&quot;&gt;3.Prestasi&lt;/font&gt;" style="whiteSpace=wrap;html=1;aspect=fixed;" vertex="1" parent="1">
          <mxGeometry x="1926" y="-1000" width="260" height="260" as="geometry" />
        </mxCell>
        <mxCell id="pBDjScLnr90J527SwH1G-75" value="&lt;font style=&quot;font-size: 30px;&quot;&gt;4. Ekstrakulikuler&lt;/font&gt;" style="whiteSpace=wrap;html=1;aspect=fixed;" vertex="1" parent="1">
          <mxGeometry x="2336" y="-995" width="260" height="260" as="geometry" />
        </mxCell>
        <mxCell id="pBDjScLnr90J527SwH1G-76" value="&lt;font style=&quot;font-size: 30px;&quot;&gt;Bisa memilih menu yang tersedia untuk menambah, mengupdate atau menghapus data&lt;/font&gt;" style="whiteSpace=wrap;html=1;aspect=fixed;" vertex="1" parent="1">
          <mxGeometry x="736" y="-295" width="260" height="260" as="geometry" />
        </mxCell>
        <mxCell id="pBDjScLnr90J527SwH1G-77" value="&lt;font style=&quot;font-size: 30px;&quot;&gt;Mengupdate data yang ada pada space yang sudah ditentukan seperti data Guru, Siswa, Jumlah prestasi, Jumlah Ekstra&lt;/font&gt;" style="whiteSpace=wrap;html=1;aspect=fixed;" vertex="1" parent="1">
          <mxGeometry x="1126" y="-650" width="260" height="260" as="geometry" />
        </mxCell>
        <mxCell id="pBDjScLnr90J527SwH1G-78" value="&lt;font style=&quot;font-size: 30px;&quot;&gt;Menambah Informasi terkait PPDB saat ini atau mengedit kembali&lt;/font&gt;" style="whiteSpace=wrap;html=1;aspect=fixed;" vertex="1" parent="1">
          <mxGeometry x="1526" y="-650" width="260" height="260" as="geometry" />
        </mxCell>
        <mxCell id="pBDjScLnr90J527SwH1G-79" value="&lt;span style=&quot;font-size: 30px;&quot;&gt;menambah dan mengedit data yang ada di halaman prestasi&amp;nbsp;&lt;/span&gt;" style="whiteSpace=wrap;html=1;aspect=fixed;" vertex="1" parent="1">
          <mxGeometry x="1936" y="-650" width="260" height="260" as="geometry" />
        </mxCell>
        <mxCell id="pBDjScLnr90J527SwH1G-80" value="Menambah atau menghapus daftar ekstra yang ada sebelumnya" style="whiteSpace=wrap;html=1;aspect=fixed;fontSize=30;" vertex="1" parent="1">
          <mxGeometry x="2334" y="-650" width="260" height="260" as="geometry" />
        </mxCell>
        <mxCell id="pBDjScLnr90J527SwH1G-81" value="User Story" style="text;strokeColor=none;fillColor=none;html=1;fontSize=50;fontStyle=1;verticalAlign=middle;align=center;" vertex="1" parent="1">
          <mxGeometry x="1626" y="-1220" width="100" height="40" as="geometry" />
        </mxCell>
        <mxCell id="pBDjScLnr90J527SwH1G-82" value="Admin" style="text;strokeColor=none;fillColor=none;html=1;fontSize=40;fontStyle=1;verticalAlign=middle;align=center;" vertex="1" parent="1">
          <mxGeometry x="276" y="-725" width="100" height="40" as="geometry" />
        </mxCell>
        <mxCell id="pBDjScLnr90J527SwH1G-83" value="&lt;font&gt;Actor&lt;/font&gt;" style="shape=umlActor;verticalLabelPosition=bottom;verticalAlign=top;html=1;outlineConnect=0;fontSize=40;" vertex="1" parent="1">
          <mxGeometry x="288" y="-1060" width="80" height="180" as="geometry" />
        </mxCell>
        <mxCell id="pBDjScLnr90J527SwH1G-84" value="" style="endArrow=none;html=1;rounded=0;exitX=0.003;exitY=0.073;exitDx=0;exitDy=0;exitPerimeter=0;" edge="1" parent="1" source="pBDjScLnr90J527SwH1G-86">
          <mxGeometry width="50" height="50" relative="1" as="geometry">
            <mxPoint x="677" y="-335" as="sourcePoint" />
            <mxPoint x="676" y="-1025" as="targetPoint" />
          </mxGeometry>
        </mxCell>
        <mxCell id="pBDjScLnr90J527SwH1G-85" value="" style="endArrow=none;html=1;rounded=0;" edge="1" parent="1">
          <mxGeometry width="50" height="50" relative="1" as="geometry">
            <mxPoint x="1066" y="5" as="sourcePoint" />
            <mxPoint x="1066" y="-1025" as="targetPoint" />
          </mxGeometry>
        </mxCell>
        <mxCell id="pBDjScLnr90J527SwH1G-86" value="" style="shape=partialRectangle;whiteSpace=wrap;html=1;right=0;top=0;bottom=0;fillColor=none;routingCenterX=-0.5;rotation=-90;" vertex="1" parent="1">
          <mxGeometry x="1471" y="-1180" width="250" height="2150" as="geometry" />
        </mxCell>
        <mxCell id="pBDjScLnr90J527SwH1G-87" value="" style="endArrow=none;html=1;rounded=0;" edge="1" parent="1">
          <mxGeometry width="50" height="50" relative="1" as="geometry">
            <mxPoint x="1456" y="-1025" as="sourcePoint" />
            <mxPoint x="1457" y="-335" as="targetPoint" />
          </mxGeometry>
        </mxCell>
        <mxCell id="pBDjScLnr90J527SwH1G-88" value="" style="endArrow=none;html=1;rounded=0;" edge="1" parent="1">
          <mxGeometry width="50" height="50" relative="1" as="geometry">
            <mxPoint x="2254.33" y="-1025" as="sourcePoint" />
            <mxPoint x="2255.33" y="-335" as="targetPoint" />
          </mxGeometry>
        </mxCell>
        <mxCell id="pBDjScLnr90J527SwH1G-89" value="" style="endArrow=none;html=1;rounded=0;" edge="1" parent="1">
          <mxGeometry width="50" height="50" relative="1" as="geometry">
            <mxPoint x="1866" y="-1025" as="sourcePoint" />
            <mxPoint x="1867" y="-335" as="targetPoint" />
          </mxGeometry>
        </mxCell>
        <mxCell id="pBDjScLnr90J527SwH1G-90" value="" style="endArrow=none;html=1;rounded=0;exitX=0;exitY=1;exitDx=0;exitDy=0;entryX=0;entryY=1;entryDx=0;entryDy=0;" edge="1" parent="1" source="pBDjScLnr90J527SwH1G-86" target="pBDjScLnr90J527SwH1G-66">
          <mxGeometry width="50" height="50" relative="1" as="geometry">
            <mxPoint x="2667" y="-335" as="sourcePoint" />
            <mxPoint x="2666" y="-1025" as="targetPoint" />
            <Array as="points" />
          </mxGeometry>
        </mxCell>
        <mxCell id="pBDjScLnr90J527SwH1G-91" value="" style="endArrow=none;html=1;rounded=0;exitX=0.003;exitY=0.063;exitDx=0;exitDy=0;exitPerimeter=0;" edge="1" parent="1">
          <mxGeometry width="50" height="50" relative="1" as="geometry">
            <mxPoint x="520" y="19" as="sourcePoint" />
            <mxPoint x="516" y="-1025" as="targetPoint" />
          </mxGeometry>
        </mxCell>
        <mxCell id="pBDjScLnr90J527SwH1G-92" value="" style="shape=partialRectangle;whiteSpace=wrap;html=1;right=0;top=0;bottom=0;fillColor=none;routingCenterX=-0.5;rotation=-90;" vertex="1" parent="1">
          <mxGeometry x="1471" y="-1535" width="250" height="2149.37" as="geometry" />
        </mxCell>
      </root>
    </mxGraphModel>
  </diagram>
</mxfile>
